<svg width="60" height="15" viewBox="0 0 60 15" fill="none" xmlns="http://www.w3.org/2000/svg">
<path d="M0 11.6364H2.10795V7.375H4.25568L6.53977 11.6364H8.89205L6.375 7.02273C7.74432 6.47159 8.46591 5.30114 8.46591 3.72159C8.46591 1.5 7.03409 0 4.36364 0H0V11.6364ZM2.10795 5.625V1.76136H4.03977C5.61364 1.76136 6.31818 2.48295 6.31818 3.72159C6.31818 4.96023 5.61364 5.625 4.05114 5.625H2.10795Z" fill="white"/>
<path d="M14.054 11.8068C16.0881 11.8068 17.4858 10.8125 17.8494 9.29545L15.929 9.07955C15.6506 9.81818 14.9688 10.2045 14.0824 10.2045C12.7528 10.2045 11.8722 9.32955 11.8551 7.83523H17.9347V7.20455C17.9347 4.14205 16.0938 2.79545 13.946 2.79545C11.446 2.79545 9.81534 4.63068 9.81534 7.32386C9.81534 10.0625 11.4233 11.8068 14.054 11.8068ZM11.8608 6.44886C11.9233 5.33523 12.7472 4.39773 13.9744 4.39773C15.1562 4.39773 15.9517 5.26136 15.9631 6.44886H11.8608Z" fill="white"/>
<path d="M32.1009 11.7898C33.6009 11.7898 34.277 10.8977 34.6009 10.2614H34.7259V11.6364H36.7486V0H34.6861V4.35227H34.6009C34.2884 3.72159 33.6463 2.79545 32.1065 2.79545C30.0895 2.79545 28.5043 4.375 28.5043 7.28409C28.5043 10.1591 30.044 11.7898 32.1009 11.7898ZM32.6747 10.1023C31.3168 10.1023 30.6009 8.90909 30.6009 7.27273C30.6009 5.64773 31.3054 4.48295 32.6747 4.48295C33.9986 4.48295 34.7259 5.57955 34.7259 7.27273C34.7259 8.96591 33.9872 10.1023 32.6747 10.1023Z" fill="white"/>
<path d="M38.9403 11.6364H40.9972V8.70455L41.7472 7.90341L44.4176 11.6364H46.8778L43.2983 6.67614L46.679 2.90909H44.2756L41.1392 6.41477H40.9972V0H38.9403V11.6364Z" fill="white"/>
<path d="M49.4219 14.9091C51.0241 14.9091 51.9503 14.0852 52.4446 12.6932L55.9503 2.92045L53.7514 2.90909L51.7344 9.5H51.6435L49.6321 2.90909H47.4503L50.6151 11.8182L50.4389 12.2898C50.0582 13.2841 49.456 13.3523 48.5582 13.0909L48.081 14.6932C48.3594 14.8068 48.8594 14.9091 49.4219 14.9091Z" fill="white"/>
<path d="M58.098 11.7614C58.7685 11.7614 59.3423 11.2045 59.348 10.5114C59.3423 9.82955 58.7685 9.27273 58.098 9.27273C57.4048 9.27273 56.8423 9.82955 56.848 10.5114C56.8423 11.2045 57.4048 11.7614 58.098 11.7614Z" fill="white"/>
<path d="M23.1136 2.79544C21.0795 2.79544 19.6818 3.78976 19.3182 5.3068L21.2386 5.52271C21.517 4.78408 22.1989 4.39771 23.0852 4.39771C24.4148 4.39771 25.2955 5.27271 25.3125 6.76703H19.233V7.39771C19.233 10.4602 21.0739 11.8068 23.2216 11.8068C25.7216 11.8068 27.3523 9.97158 27.3523 7.2784C27.3523 4.53976 25.7443 2.79544 23.1136 2.79544ZM25.3068 8.1534C25.2443 9.26703 24.4205 10.2045 23.1932 10.2045C22.0114 10.2045 21.2159 9.3409 21.2045 8.1534H25.3068Z" fill="white"/>
<path d="M25.3523 7.63635L27.2768 8.24934L26.8523 11.6364H25.3523V7.63635Z" fill="white"/>
</svg>
