<svg width="18" height="21" viewBox="0 0 18 21" fill="none" xmlns="http://www.w3.org/2000/svg">
<path fill-rule="evenodd" clip-rule="evenodd" d="M8.66475 16.6316L2.7334 19.881C2.25983 20.1271 1.6764 19.9529 1.41532 19.4874V19.4874C1.33979 19.3432 1.29904 19.1834 1.29633 19.0206V4.62244C1.29633 1.87644 3.17276 0.778046 5.87298 0.778046H12.2162C14.8341 0.778046 16.7929 1.80322 16.7929 4.43937V19.0206C16.7929 19.2804 16.6897 19.5295 16.506 19.7132C16.3224 19.8968 16.0732 20 15.8135 20C15.6478 19.9974 15.4849 19.9567 15.3375 19.881L9.36955 16.6316C9.14964 16.5128 8.88466 16.5128 8.66475 16.6316Z" stroke="black" stroke-width="1.5" stroke-linecap="round" stroke-linejoin="round"/>
<path d="M5.36957 7.32266H12.6648" stroke="black" stroke-width="1.5" stroke-linecap="round" stroke-linejoin="round"/>
</svg>
