<svg width="24" height="24" viewBox="0 0 24 24" fill="none" xmlns="http://www.w3.org/2000/svg">
<path fill-rule="evenodd" clip-rule="evenodd" d="M17.8572 20.4168C19.7322 20.4168 21.2502 18.8978 21.2502 17.0238V14.3238C20.0102 14.3238 19.0102 13.3238 19.0102 12.0848C19.0102 10.8448 20.0102 9.84582 21.2502 9.84582L21.2482 7.14282C21.2482 5.26882 19.7302 3.74982 17.8562 3.74982H6.14424C4.27024 3.74982 2.75124 5.26882 2.75124 7.14282L2.75024 9.93282C3.98924 9.93282 4.98924 10.8448 4.98924 12.0848C4.98924 13.3238 3.98924 14.3238 2.75024 14.3238V17.0238C2.75024 18.8978 4.26824 20.4168 6.14224 20.4168H17.8572Z" stroke="#252525" stroke-width="1.5" stroke-linecap="round" stroke-linejoin="round"/>
<path fill-rule="evenodd" clip-rule="evenodd" d="M11.9997 13.8543L13.7397 14.7693C13.9027 14.8543 14.0937 14.7163 14.0627 14.5353L13.7297 12.5963L15.1387 11.2253C15.2707 11.0963 15.1977 10.8733 15.0157 10.8463L13.0697 10.5633L12.1987 8.79929C12.1177 8.63429 11.8827 8.63429 11.8007 8.79929L10.9297 10.5633L8.98469 10.8463C8.80269 10.8733 8.72969 11.0963 8.86169 11.2253L10.2697 12.5963L9.93669 14.5353C9.90569 14.7163 10.0967 14.8543 10.2597 14.7693L11.9997 13.8543Z" stroke="#252525" stroke-width="1.5" stroke-linecap="round" stroke-linejoin="round"/>
</svg>
